<svg xmlns="http://www.w3.org/2000/svg" viewBox="0 0 24 24" fill="currentColor">
  <path d="M11.848 5.585c0-1.494 1.496-2.703 3.341-2.703s3.34 1.209 3.34 2.703c0 1.494-1.496 2.703-3.34 2.703s-3.341-1.209-3.341-2.703zm-5.874 0c0-1.494 1.496-2.703 3.34-2.703s3.341 1.209 3.341 2.703c0 1.494-1.497 2.703-3.341 2.703s-3.34-1.209-3.34-2.703zm11.748 13.812c0 1.493-1.496 2.702-3.34 2.702s-3.341-1.209-3.341-2.702c0-1.494 1.497-2.703 3.341-2.703s3.34 1.209 3.34 2.703zm-5.874 0c0 1.493-1.496 2.702-3.34 2.702s-3.341-1.209-3.341-2.702c0-1.494 1.497-2.703 3.341-2.703s3.34 1.209 3.34 2.703zm-5.874-7.906c0-1.493 1.496-2.703 3.34-2.703s3.341 1.21 3.341 2.703c0 1.493-1.497 2.702-3.341 2.702s-3.34-1.209-3.34-2.702zm5.874 0c0-1.493 1.496-2.703 3.341-2.703s3.34 1.21 3.34 2.703c0 1.493-1.495 2.702-3.34 2.702s-3.341-1.209-3.341-2.702z"/>
</svg>